<?xml version="1.0" encoding="UTF-8"?>
<!-- Generator: Adobe Illustrator 16.0.3, SVG Export Plug-In . SVG Version: 6.00 Build 0)  -->
<!DOCTYPE svg PUBLIC "-//W3C//DTD SVG 1.1//EN" "http://www.w3.org/Graphics/SVG/1.1/DTD/svg11.dtd">
<svg version="1.1" id="Ebene_1" xmlns="http://www.w3.org/2000/svg" xmlns:xlink="http://www.w3.org/1999/xlink" x="0px" y="0px" width="198px" height="43px" viewBox="0 0 198 43" enable-background="new 0 0 198 43" xml:space="preserve">
<path fill="#009BA4" d="M25.645,33.241c-0.728,1.533-1.707,2.666-2.937,3.4c-1.231,0.733-2.581,1.101-4.049,1.101  c-1.147,0-2.201-0.213-3.161-0.637c-0.96-0.425-1.811-1.066-2.551-1.923c-0.741-0.855-1.315-1.935-1.72-3.234  c-0.406-1.301-0.608-2.756-0.608-4.366c0-1.597,0.203-3.035,0.608-4.317c0.405-1.281,0.96-2.334,1.663-3.158  c0.702-0.823,1.539-1.451,2.512-1.883c0.973-0.431,2.033-0.647,3.18-0.647c1.61,0,3.038,0.389,4.281,1.169  c1.243,0.779,2.2,1.928,2.87,3.448c0.67,1.521,1.005,3.315,1.005,5.389C26.738,29.823,26.373,31.71,25.645,33.241z M12.807,14.061  c-1.694,0.675-3.132,1.648-4.313,2.92c-1.182,1.273-2.083,2.814-2.704,4.625c-0.623,1.813-0.934,3.805-0.934,5.976  c0,2.12,0.297,4.094,0.895,5.917c0.596,1.825,1.478,3.387,2.646,4.685c1.168,1.299,2.625,2.303,4.371,3.017  c1.745,0.713,3.721,1.069,5.929,1.069c2.22,0,4.189-0.348,5.91-1.04c1.719-0.694,3.169-1.696,4.35-3.007  c1.182-1.311,2.067-2.859,2.657-4.646c0.589-1.786,0.885-3.772,0.885-5.957c0-2.954-0.539-5.528-1.618-7.718  c-1.078-2.191-2.665-3.881-4.764-5.069c-2.098-1.189-4.611-1.784-7.537-1.784C16.425,13.049,14.5,13.386,12.807,14.061z"/>
<path fill="#009BA4" d="M52.406,18.208c0.709,0.299,1.263,0.749,1.664,1.35c0.398,0.602,0.599,1.297,0.599,2.085  c0,1.01-0.249,1.802-0.745,2.377s-1.214,0.982-2.155,1.222c-0.941,0.24-2.102,0.359-3.48,0.359h-5.144v-7.819h5.298  C50.414,17.782,51.734,17.924,52.406,18.208z M47.688,30.121c0.67,0.271,1.331,0.771,1.982,1.501  c0.65,0.732,1.389,1.798,2.214,3.196l2.286,3.813c0.538,0.897,0.963,1.579,1.277,2.041c0.313,0.463,0.688,0.845,1.123,1.146  c0.436,0.301,0.974,0.452,1.614,0.452c0.538,0,1.012-0.106,1.421-0.317c0.409-0.212,0.733-0.5,0.97-0.867  c0.236-0.365,0.355-0.733,0.355-1.107c0-0.359-0.202-1.018-0.604-1.973c-0.403-0.956-0.964-2.028-1.687-3.216  c-0.723-1.188-1.545-2.308-2.465-3.36c-0.921-1.052-1.887-1.849-2.896-2.388c2.403-0.527,4.195-1.423,5.377-2.685  c1.182-1.26,1.774-2.945,1.774-5.057c0-1.029-0.176-2.004-0.526-2.925c-0.352-0.919-0.865-1.728-1.541-2.423  c-0.678-0.695-1.456-1.229-2.336-1.602c-0.733-0.331-1.555-0.55-2.467-0.659c-0.912-0.107-2.011-0.161-3.294-0.161h-9.308  c-1.233,0-2.126,0.276-2.678,0.829c-0.553,0.553-0.829,1.446-0.829,2.679v21.744c0,1.144,0.249,2.011,0.747,2.602  c0.498,0.591,1.201,0.887,2.109,0.887c0.842,0,1.526-0.282,2.05-0.846c0.524-0.565,0.787-1.445,0.787-2.639v-9.068h2.01  C46.173,29.717,47.017,29.853,47.688,30.121z"/>
<path fill="#009BA4" d="M75.427,18.056c1.755,0,3.254,0.191,4.494,0.571c1.24,0.379,2.283,1.265,3.129,2.654  c0.846,1.391,1.269,3.48,1.269,6.273c0,3.963-0.962,6.756-2.886,8.376c-0.427,0.375-0.932,0.664-1.513,0.87  c-0.581,0.205-1.142,0.334-1.685,0.385c-0.542,0.053-1.291,0.078-2.247,0.078h-4.358V18.056H75.427z M66.761,14.358  c-0.55,0.553-0.824,1.446-0.824,2.68v20.723c0,0.913,0.081,1.655,0.242,2.227c0.161,0.572,0.505,1.015,1.032,1.331  c0.528,0.314,1.312,0.472,2.355,0.472h7.467c1.299,0,2.467-0.083,3.503-0.249c1.035-0.166,2.003-0.454,2.903-0.863  c0.9-0.41,1.731-0.953,2.49-1.63c0.957-0.889,1.741-1.896,2.354-3.021c0.612-1.124,1.065-2.387,1.359-3.788  c0.294-1.402,0.441-2.952,0.441-4.649c0-5.145-1.462-8.977-4.384-11.498c-1.134-0.988-2.397-1.662-3.789-2.022  c-1.392-0.359-3.06-0.54-5.005-0.54h-7.479C68.198,13.529,67.31,13.806,66.761,14.358z"/>
<path fill="#009BA4" d="M95.389,38.781V16.519c0-1.156,0.261-2.023,0.786-2.601c0.524-0.58,1.202-0.869,2.032-0.869  c0.856,0,1.55,0.286,2.08,0.858c0.529,0.573,0.797,1.443,0.797,2.611v22.263c0,1.169-0.268,2.042-0.797,2.622  c-0.53,0.577-1.224,0.866-2.08,0.866c-0.819,0-1.493-0.292-2.022-0.876C95.654,40.808,95.389,39.938,95.389,38.781z"/>
<path fill="#009BA4" d="M106.487,36.523l6.316-9.248l-5.316-8.196c-0.5-0.795-0.876-1.478-1.126-2.048  c-0.251-0.57-0.375-1.119-0.375-1.646c0-0.538,0.24-1.022,0.722-1.453c0.482-0.429,1.069-0.645,1.763-0.645  c0.795,0,1.414,0.234,1.858,0.702c0.442,0.468,1.056,1.336,1.839,2.605l4.237,6.846l4.527-6.846c0.371-0.576,0.688-1.07,0.952-1.48  c0.264-0.41,0.517-0.749,0.762-1.018c0.244-0.27,0.517-0.471,0.818-0.606c0.303-0.134,0.65-0.202,1.051-0.202  c0.717,0,1.305,0.215,1.761,0.645c0.456,0.431,0.685,0.939,0.685,1.529c0,0.859-0.496,2.027-1.483,3.501l-5.566,8.312l5.99,9.248  c0.538,0.813,0.93,1.485,1.174,2.02c0.245,0.534,0.367,1.039,0.367,1.515c0,0.452-0.109,0.863-0.328,1.235  c-0.219,0.373-0.526,0.671-0.923,0.889c-0.4,0.219-0.849,0.328-1.35,0.328c-0.539,0-0.996-0.113-1.367-0.338  c-0.373-0.225-0.675-0.506-0.906-0.84c-0.231-0.335-0.661-0.986-1.29-1.953l-4.969-7.844l-5.277,8.077  c-0.411,0.644-0.703,1.094-0.877,1.353c-0.174,0.257-0.382,0.51-0.626,0.753c-0.244,0.245-0.533,0.438-0.867,0.58  c-0.334,0.14-0.725,0.212-1.175,0.212c-0.693,0-1.267-0.213-1.724-0.637c-0.456-0.425-0.683-1.043-0.683-1.854  C105.081,39.067,105.549,37.902,106.487,36.523z"/>
<path fill="#009BA4" d="M152.063,19.085l4.258,11.661h-8.438L152.063,19.085z M159.855,40.088c0.251,0.576,0.484,1.004,0.703,1.28  c0.219,0.279,0.486,0.498,0.809,0.66c0.322,0.159,0.707,0.241,1.156,0.241c0.771,0,1.429-0.273,1.976-0.818  c0.545-0.547,0.819-1.147,0.819-1.803c0-0.63-0.29-1.638-0.867-3.025l-7.38-18.234c-0.346-0.913-0.632-1.641-0.856-2.188  c-0.226-0.546-0.502-1.057-0.829-1.533c-0.328-0.476-0.758-0.863-1.29-1.166c-0.534-0.302-1.197-0.453-1.994-0.453  c-0.784,0-1.442,0.151-1.975,0.453c-0.534,0.303-0.964,0.696-1.291,1.186c-0.329,0.489-0.637,1.102-0.925,1.84  c-0.29,0.739-0.536,1.372-0.743,1.899l-7.225,18.351c-0.296,0.732-0.507,1.305-0.636,1.716c-0.128,0.411-0.193,0.808-0.193,1.193  c0,0.669,0.276,1.266,0.829,1.793c0.552,0.526,1.188,0.79,1.907,0.79c0.847,0,1.457-0.25,1.83-0.745  c0.374-0.498,0.822-1.458,1.349-2.881l1.35-3.645h11.483l1.348,3.567C159.391,39.006,159.604,39.515,159.855,40.088z"/>
<path fill="#009BA4" d="M194.364,30.291v5.437c0,0.722-0.07,1.3-0.211,1.731c-0.14,0.433-0.398,0.822-0.777,1.171  c-0.375,0.349-0.857,0.685-1.445,1.006c-1.71,0.916-3.355,1.584-4.936,2.004c-1.582,0.42-3.305,0.63-5.168,0.63  c-2.171,0-4.151-0.334-5.938-1.002c-1.786-0.667-3.31-1.638-4.568-2.91c-1.26-1.271-2.227-2.814-2.901-4.627  c-0.676-1.812-1.012-3.835-1.012-6.071c0-2.197,0.326-4.208,0.982-6.033c0.654-1.824,1.619-3.372,2.89-4.645  c1.272-1.272,2.821-2.245,4.646-2.92c1.823-0.675,3.894-1.012,6.205-1.012c1.902,0,3.586,0.255,5.051,0.763  c1.464,0.509,2.652,1.15,3.564,1.923c0.911,0.772,1.599,1.59,2.062,2.453c0.463,0.864,0.694,1.631,0.694,2.299  c0,0.723-0.266,1.338-0.796,1.847s-1.167,0.763-1.907,0.763c-0.409,0-0.803-0.098-1.18-0.295c-0.378-0.197-0.695-0.473-0.95-0.827  c-0.709-1.111-1.31-1.951-1.8-2.519c-0.491-0.568-1.152-1.046-1.983-1.434c-0.832-0.389-1.894-0.582-3.183-0.582  c-1.328,0-2.516,0.229-3.562,0.687c-1.045,0.458-1.938,1.122-2.679,1.992c-0.742,0.87-1.31,1.938-1.703,3.2  c-0.395,1.264-0.591,2.662-0.591,4.197c0,3.326,0.765,5.885,2.294,7.677c1.528,1.793,3.66,2.688,6.395,2.688  c1.328,0,2.576-0.175,3.743-0.525c1.168-0.35,2.352-0.849,3.552-1.498v-4.63h-4.45c-1.071,0-1.881-0.159-2.429-0.478  c-0.549-0.317-0.821-0.857-0.821-1.62c0-0.623,0.227-1.138,0.683-1.544c0.456-0.407,1.077-0.611,1.861-0.611h6.495  c0.797,0,1.47,0.071,2.023,0.209c0.553,0.141,0.998,0.452,1.34,0.936C194.194,28.601,194.364,29.326,194.364,30.291z"/>
<circle fill="#009BA4" cx="98.151" cy="4.194" r="3.042"/>
</svg>